<?xml version="1.0" encoding="utf-8"?>
<svg xmlns="http://www.w3.org/2000/svg" width="24.0" height="24.0" viewBox="0 0 24.0 24.0">
  <path d="M15 12h-5" fill="#000000" fill-opacity="0.0" stroke="#000000" stroke-opacity="1.0" stroke-width="2.0" stroke-linecap="round" stroke-linejoin="round"/>
  <path d="M15 8h-5" fill="#000000" fill-opacity="0.0" stroke="#000000" stroke-opacity="1.0" stroke-width="2.0" stroke-linecap="round" stroke-linejoin="round"/>
  <path d="M19 17V5a2 2 0 0 0-2-2H4" fill="#000000" fill-opacity="0.0" stroke="#000000" stroke-opacity="1.0" stroke-width="2.0" stroke-linecap="round" stroke-linejoin="round"/>
  <path d="M8 21h12a2 2 0 0 0 2-2v-1a1 1 0 0 0-1-1H11a1 1 0 0 0-1 1v1a2 2 0 1 1-4 0V5a2 2 0 1 0-4 0v2a1 1 0 0 0 1 1h3" fill="#000000" fill-opacity="0.0" stroke="#000000" stroke-opacity="1.0" stroke-width="2.0" stroke-linecap="round" stroke-linejoin="round"/>
</svg>
