<?xml version="1.0" encoding="utf-8"?>
<svg xmlns="http://www.w3.org/2000/svg" width="24.0" height="24.0" viewBox="0 0 24.0 24.0">
  <path d="M11 14h10" fill="#000000" fill-opacity="0.0" stroke="#000000" stroke-opacity="1.0" stroke-width="2.0" stroke-linecap="round" stroke-linejoin="round"/>
  <path d="M16 4h2a2 2 0 0 1 2 2v1.344" fill="#000000" fill-opacity="0.0" stroke="#000000" stroke-opacity="1.0" stroke-width="2.0" stroke-linecap="round" stroke-linejoin="round"/>
  <path d="m17 18 4-4-4-4" fill="#000000" fill-opacity="0.0" stroke="#000000" stroke-opacity="1.0" stroke-width="2.0" stroke-linecap="round" stroke-linejoin="round"/>
  <path d="M8 4H6a2 2 0 0 0-2 2v14a2 2 0 0 0 2 2h12a2 2 0 0 0 1.793-1.113" fill="#000000" fill-opacity="0.0" stroke="#000000" stroke-opacity="1.0" stroke-width="2.0" stroke-linecap="round" stroke-linejoin="round"/>
  <path d="M9.0,2.0L15.0,2.0Q16.0,2.0 16.0,3.0L16.0,5.0Q16.0,6.0 15.0,6.0L9.0,6.0Q8.0,6.0 8.0,5.0L8.0,3.0Q8.0,2.0 9.0,2.0Z" fill="#000000" fill-opacity="0.0" stroke="#000000" stroke-opacity="1.0" stroke-width="2.0" stroke-linecap="round" stroke-linejoin="round"/>
</svg>
