<?xml version="1.0" encoding="utf-8"?>
<svg xmlns="http://www.w3.org/2000/svg" width="24.0" height="24.0" viewBox="0 0 24.0 24.0">
  <path d="M12,12m-1,0a1,1 0,1 0,2.0,0a1,1 0,1 0,-2.0,0" fill="#000000" fill-opacity="0.0" stroke="#000000" stroke-opacity="1.0" stroke-width="2.0" stroke-linecap="round" stroke-linejoin="round"/>
  <path d="M20.2 20.2c2.04-2.03.02-7.36-4.5-11.9-4.54-4.52-9.87-6.54-11.9-4.5-2.04 2.03-.02 7.36 4.5 11.9 4.54 4.52 9.87 6.54 11.9 4.5Z" fill="#000000" fill-opacity="0.0" stroke="#000000" stroke-opacity="1.0" stroke-width="2.0" stroke-linecap="round" stroke-linejoin="round"/>
  <path d="M15.7 15.7c4.52-4.54 6.54-9.87 4.5-11.9-2.03-2.04-7.36-.02-11.9 4.5-4.52 4.54-6.54 9.87-4.5 11.9 2.03 2.04 7.36.02 11.9-4.5Z" fill="#000000" fill-opacity="0.0" stroke="#000000" stroke-opacity="1.0" stroke-width="2.0" stroke-linecap="round" stroke-linejoin="round"/>
</svg>
