<?xml version="1.0" encoding="utf-8"?>
<svg xmlns="http://www.w3.org/2000/svg" width="24.0" height="24.0" viewBox="0 0 24.0 24.0">
  <path d="M10,8L20,8A2,2 0,0 1,22 10L22,20A2,2 0,0 1,20 22L10,22A2,2 0,0 1,8 20L8,10A2,2 0,0 1,10 8z" fill="#000000" fill-opacity="0.0" stroke="#000000" stroke-opacity="1.0" stroke-width="2.0" stroke-linecap="round" stroke-linejoin="round"/>
  <path d="M4,16c-1.1,0 -2,-0.9 -2,-2V4c0,-1.1 0.9,-2 2,-2h10c1.1,0 2,0.9 2,2" fill="#000000" fill-opacity="0.0" stroke="#000000" stroke-opacity="1.0" stroke-width="2.0" stroke-linecap="round" stroke-linejoin="round"/>
</svg>
